<svg width="330" height="220" fill="none" xmlns="http://www.w3.org/2000/svg"><path fill-rule="evenodd" clip-rule="evenodd" d="M69 54a4 4 0 0 1 4-4h184a4 4 0 0 1 4 4v10H69V54z" fill="#fff" stroke="#212121"/><circle cx="77" cy="57" r="2.5" fill="#3740FF" stroke="#212121"/><circle cx="87" cy="57" r="2.5" fill="#2979FF" stroke="#212121"/><circle cx="97" cy="57" r="2.5" fill="#3FC4FF" stroke="#212121"/><path d="M261 170V64H69v106" stroke="#212121"/><mask id="a" fill="#fff"><path fill-rule="evenodd" clip-rule="evenodd" d="M171 75h50v30h-50V75zm-62 20h50v31h-50V95zm112 20h-50v30h50v-30z"/></mask><path fill-rule="evenodd" clip-rule="evenodd" d="M171 75h50v30h-50V75zm-62 20h50v31h-50V95zm112 20h-50v30h50v-30z" fill="#fff"/><path d="M221 75h1v-1h-1v1zm-50 0v-1h-1v1h1zm50 30v1h1v-1h-1zm-50 0h-1v1h1v-1zm-12-10h1v-1h-1v1zm-50 0v-1h-1v1h1zm50 31v1h1v-1h-1zm-50 0h-1v1h1v-1zm62-11v-1h-1v1h1zm50 0h1v-1h-1v1zm-50 30h-1v1h1v-1zm50 0v1h1v-1h-1zm0-71h-50v2h50v-2zm1 31V75h-2v30h2zm-51 1h50v-2h-50v2zm-1-31v30h2V75h-2zm-11 19h-50v2h50v-2zm1 32V95h-2v31h2zm-51 1h50v-2h-50v2zm-1-32v31h2V95h-2zm63 21h50v-2h-50v2zm1 29v-30h-2v30h2zm49-1h-50v2h50v-2zm-1-29v30h2v-30h-2z" fill="#212121" mask="url(#a)"/><mask id="b" mask-type="alpha" maskUnits="userSpaceOnUse" x="109" y="75" width="112" height="70"><path fill-rule="evenodd" clip-rule="evenodd" d="M171 75h50v30h-50V75zm-62 20h50v31h-50V95zm112 20h-50v30h50v-30z" fill="#C4C4C4"/></mask><g mask="url(#b)" stroke="#212121"><path d="M117 69.5V150M129 69.5V150M141 69.5V150M153 69.5V150M165 69.5V150M177 69.5V150M189 69.5V150M201 69.5V150M213 69.5V150M105 86.5h120.5M105 98.5h120.5M105 110.5h120.5M105 122.5h120.5M105 134.5h120.5"/></g><circle cx="153" cy="110.5" r="3" fill="#3FC4FF" stroke="#212121"/><circle cx="189" cy="98.5" r="3" fill="#2979FF" stroke="#212121"/><circle cx="177" cy="134.5" r="3" fill="#3740FF" stroke="#212121"/><circle cx="213" cy="122.5" r="3" fill="#3740FF" stroke="#212121"/><path d="m46.5 110.5 63-15M171.5 75.5l17-45m32 74 63-15m-142 80 17-44m13 19 17 45M220.5 115.5l63 15" stroke="#212121" stroke-dasharray="2 2"/><path fill="#fff" stroke="#212121" d="M46.5 110.5h95v59h-95z"/><path fill-rule="evenodd" clip-rule="evenodd" d="M94 160c11.046 0 20-8.954 20-20s-8.954-20-20-20-20 8.954-20 20 8.954 20 20 20zm-5-11.34 15-8.66-15-8.66v17.32z" fill="#3FC4FF"/><path d="m104 140 .25.433.75-.433-.75-.433-.25.433zm-15 8.66h-.5v.866l.75-.433-.25-.433zm0-17.32.25-.433-.75-.433v.866h.5zm24.5 8.66c0 10.77-8.73 19.5-19.5 19.5v1c11.322 0 20.5-9.178 20.5-20.5h-1zM94 120.5c10.77 0 19.5 8.73 19.5 19.5h1c0-11.322-9.178-20.5-20.5-20.5v1zM74.5 140c0-10.77 8.73-19.5 19.5-19.5v-1c-11.322 0-20.5 9.178-20.5 20.5h1zM94 159.5c-10.77 0-19.5-8.73-19.5-19.5h-1c0 11.322 9.178 20.5 20.5 20.5v-1zm9.75-19.933-15 8.66.5.866 15-8.66-.5-.866zm-15-7.794 15 8.66.5-.866-15-8.66-.5.866zm.75 16.887v-17.32h-1v17.32h1z" fill="#212121"/><path fill="#fff" stroke="#212121" d="M188.5 30.5h95v59h-95z"/><circle cx="220" cy="73" r="5.5" fill="#2979FF" stroke="#212121"/><circle cx="244" cy="67" r="5.5" fill="#2979FF" stroke="#212121"/><path d="M225.5 53.366v-5.972l24-5.76v5.972l-24 5.76z" fill="#2979FF" stroke="#212121"/><path d="M225.5 49v24M249.5 43v24" stroke="#212121"/><path fill="#fff" stroke="#212121" d="M188.5 130.5h95v59h-95z"/><path d="M229.072 156 236 144l6.928 12h-13.856z" fill="#3FC4FF" stroke="#212121"/><circle cx="226" cy="168" r="7.5" fill="#2979FF" stroke="#212121"/><path fill="#3740FF" stroke="#212121" d="M239.5 161h14v14h-14z"/></svg>